<svg width="800" height="211" viewBox="0 0 800 211" fill="none" xmlns="http://www.w3.org/2000/svg">
<path d="M181.342 7.53757C181.783 4.17476 180.205 2.00459 176.609 1.02709C176.556 1.01128 176.502 1.00322 176.449 1.00319C175.095 0.992563 146.365 1.0085 90.2593 1.051C87.4436 1.051 84.7289 1.73632 82.1152 3.10695C80.3939 4.00476 78.2025 5.7632 75.541 8.38226C73.315 10.5763 68.4753 15.3655 61.0219 22.7499C42.7735 40.8284 24.525 58.9705 6.27659 77.1765C3.33612 80.109 1.20847 82.1809 1.16066 87.0019C1.02785 99.396 0.977379 124.423 1.00925 162.083C1.01457 165.255 2.23378 167.542 4.66691 168.945C6.76534 170.151 8.60346 170.756 10.1813 170.761C36.2125 170.852 61.1521 170.889 84.9999 170.873C88.2883 170.873 90.6842 169.638 92.1877 167.168C93.0164 165.808 93.3963 163.032 93.3272 158.84C93.2263 152.773 93.2316 132.14 93.3432 96.939C93.3434 96.7017 93.3907 96.4668 93.4823 96.2479C93.574 96.0291 93.7081 95.8306 93.877 95.664C122.331 67.1252 149.334 40.3343 174.887 15.2912C177.788 12.449 179.828 10.1593 181.007 8.42209C181.186 8.16022 181.3 7.85725 181.342 7.53757Z" stroke="#858689" stroke-width="2"/>
<path d="M628.883 164.227L675.962 164.283C676.209 164.284 676.452 164.233 676.678 164.135C676.904 164.037 677.107 163.894 677.275 163.713C677.443 163.533 677.571 163.32 677.652 163.087C677.734 162.855 677.766 162.608 677.747 162.362L677.739 162.227C677.709 161.694 677.49 161.19 677.122 160.803C676.755 160.417 676.262 160.173 675.731 160.115C672.613 159.77 670.639 158.487 669.81 156.266C668.907 153.865 668.458 151.089 668.464 147.939C668.49 106.247 668.52 62.097 668.551 15.4904C668.551 14.1092 667.85 13.3442 666.448 13.1955C666.209 13.1694 665.97 13.2167 665.762 13.3309C657.475 17.8306 648.768 21.0712 639.641 23.0528C637.181 23.584 633.446 24.2029 628.437 24.9095C628.197 24.9408 627.969 25.0371 627.775 25.1884C626.126 26.5033 626.285 29.3322 628.524 29.5314C632.753 29.9086 635.213 32.1929 635.903 36.3845C636.413 39.4604 636.666 42.454 636.66 45.3653C636.602 87.6794 636.581 121.48 636.597 146.768C636.605 152.577 635.609 159.534 628.644 160.251C628.126 160.305 627.649 160.56 627.316 160.96C626.983 161.36 626.819 161.875 626.859 162.394V162.426C626.919 162.921 627.158 163.378 627.531 163.709C627.903 164.041 628.384 164.225 628.883 164.227Z" stroke="#858689" stroke-width="2"/>
<path d="M569.627 25.8975C567.874 26.1127 567.117 27.9933 567.962 29.5393C568.281 30.1183 569.062 30.5247 570.305 30.7585C573.038 31.2605 575.357 32.926 576.042 35.6832C577.014 39.5613 577.495 43.3172 577.485 46.951C577.405 83.2832 577.389 116.295 577.437 145.987C577.445 151.955 576.887 158.952 569.484 160.099C568.975 160.179 568.51 160.437 568.173 160.828C567.836 161.219 567.648 161.718 567.643 162.235V162.283C567.645 162.784 567.846 163.265 568.201 163.619C568.557 163.973 569.038 164.171 569.54 164.171L616.515 164.267C616.738 164.268 616.959 164.224 617.164 164.137C617.37 164.051 617.555 163.923 617.71 163.762C617.865 163.601 617.986 163.411 618.065 163.202C618.145 162.992 618.182 162.769 618.173 162.546L618.165 162.378C618.173 161.862 617.991 161.36 617.653 160.969C617.315 160.578 616.845 160.325 616.332 160.259C609.065 159.31 609.025 152.091 609.025 146.361C609.051 108.621 609.07 73.6755 609.081 41.5243C609.081 34.4799 608.826 24.9572 609.105 16.6379C609.144 15.2752 608.642 14.04 607.351 13.546C606.847 13.3441 605.965 13.6071 604.706 14.3349C594.028 20.4974 582.335 24.3516 569.627 25.8975Z" stroke="#858689" stroke-width="2"/>
<path d="M250.75 115.49C250.877 123.826 250.888 134.684 250.782 148.066C250.755 151.716 252.577 154.415 256.248 156.163C268.85 162.166 281.801 165.505 295.104 166.179C306.467 166.761 316.628 166.116 326.859 162.482C340.868 157.509 353.037 145.644 355.125 130.511C356.655 119.427 355.18 109.028 348.343 100.756C340.956 91.815 330.103 85.2568 319.648 80.7305C314.58 78.5312 310.675 76.2122 305.83 74.1005C296.985 70.2516 283.143 63.8846 280.41 53.4694C277.875 43.8193 285.023 33.946 294.419 31.7227C305.787 29.0293 315.86 31.7015 324.636 39.7393C330.336 44.9615 334.613 51.2727 337.466 58.673C338.592 61.5843 339.384 63.9457 339.841 65.7572C339.903 66.0061 340.039 66.2287 340.231 66.3947C341.74 67.7016 343.246 67.6697 344.749 66.2991C345.02 66.0534 345.237 65.7534 345.385 65.4186C345.533 65.0837 345.61 64.7213 345.61 64.3547V36.2171C345.61 35.9873 345.549 35.7619 345.435 35.5636C344.574 34.0921 343.445 33.0269 342.048 32.3682C333.856 28.4794 325.401 25.9958 316.683 24.9174C310.085 24.0993 305.708 23.7274 303.551 23.8018C300.528 23.908 297.064 24.1657 293.16 24.5747C274.943 26.4713 256.934 37.0936 252.631 56.1469C246.622 82.7705 268.313 98.0864 288.968 107.482C298.185 111.678 305.038 114.874 309.527 117.068C316.492 120.471 325.027 125.642 328.063 132.743C330.852 139.261 330.15 145.267 325.959 150.76C320.174 158.338 308.236 160.665 299.2 159.366C292.952 158.463 287.414 156.412 282.585 153.214C269.803 144.743 263.157 133.213 257.46 118.048C257.338 117.737 257.271 117.408 257.26 117.076C257.165 114.792 256.121 113.477 254.129 113.131C252.87 112.908 250.734 114.255 250.75 115.49Z" stroke="#858689" stroke-width="2"/>
<path d="M558.607 136.799C554.543 139.444 550.598 142.664 546.223 144.178C539.665 146.449 532.405 147.556 525.353 146.576C510.157 144.457 498.291 132.806 494.315 117.793C491.079 105.58 491.279 94.025 494.912 83.1291C498.124 73.4869 504.483 66.4027 514.42 64.283C524.548 62.1155 532.445 68.5622 534.557 78.5471C535.051 80.8979 535.33 84.3483 536.43 86.7071C539.102 92.4127 543.586 95.0796 549.881 94.7077C554.742 94.4208 558.503 92.0302 560.384 87.6155C563.81 79.5591 559.722 71.3274 553.036 66.4107C548.553 63.1222 543.49 60.8697 537.848 59.6532C522.612 56.3541 506.69 57.1191 493.111 63.7491C469.683 75.1922 458.097 99.728 462.751 125.252C465.476 140.177 474.465 153.254 488.004 160.314C493.869 163.369 499.593 165.223 505.176 165.877C512.268 166.711 519.347 166.477 526.413 165.175C540.741 162.538 551.833 154.959 560.336 143.158C560.851 142.441 561.494 141.309 562.264 139.763C563.101 138.074 561.165 136.456 559.69 136.472C559.306 136.472 558.929 136.586 558.607 136.799Z" stroke="#858689" stroke-width="2"/>
<path d="M752.534 147.078C752.949 155.095 756.213 160.721 762.328 163.956C771.627 168.873 785.525 165.988 794.888 160.968C796.174 160.277 797.119 159.573 797.725 158.856C797.91 158.64 798.012 158.366 798.012 158.083C798.017 157.265 797.651 156.609 796.912 156.115C796.792 156.035 796.657 155.981 796.515 155.958C796.374 155.935 796.229 155.942 796.091 155.98C794.593 156.394 793.462 156.864 792.051 156.832C789.31 156.774 787.387 155.531 786.282 153.103C785.028 150.34 784.375 147.825 784.322 145.556C784.12 137.683 784.101 120.723 784.266 94.6759C784.314 86.6593 783.58 80.372 780.098 74.244C774.99 65.2393 764.918 60.5219 755.052 58.8165C742.509 56.6597 730.086 57.6372 717.783 61.749C709.389 64.5487 702.583 69.1361 697.367 75.5111C692.004 82.0693 688.983 94.2695 699.255 98.0387C701.662 98.9153 706.706 98.6603 708.77 97.9829C714.104 96.2298 717.315 92.5695 718.404 87.002C718.532 86.3486 718.911 83.865 719.544 79.5512C720.611 72.2518 724.707 67.4148 731.831 65.0401C737.415 63.1808 742.35 63.9298 746.637 67.2873C751.307 70.937 752.463 76.8657 752.518 82.6271C752.577 88.7737 752.574 93.1645 752.51 95.7995C752.508 95.9225 752.475 96.0432 752.415 96.1514C752.356 96.2596 752.271 96.3521 752.168 96.421C750.643 97.4623 748.895 98.3389 746.924 99.0507C740.576 101.34 731.773 104.103 720.516 107.338C708.268 110.852 694.307 116.749 688.274 128.814C683.923 137.516 684.409 149.031 690.577 156.601C701.12 169.534 720.388 168.355 733.911 161.231C740.887 157.56 746.932 152.787 752.048 146.911C752.085 146.87 752.133 146.841 752.186 146.827C752.239 146.813 752.295 146.815 752.347 146.833C752.399 146.851 752.444 146.884 752.477 146.928C752.511 146.971 752.531 147.024 752.534 147.078Z" stroke="#858689" stroke-width="2"/>
<path d="M425.369 128.065C422.368 122.03 420.213 117.679 418.907 115.012C412.691 102.347 406.547 89.7006 400.475 77.0728C398.945 73.8959 397.994 71.2901 397.622 69.2554C396.897 65.3029 399.885 64.004 402.993 63.0876C403.184 63.0316 403.363 62.9398 403.52 62.8176C403.676 62.6955 403.806 62.5453 403.903 62.3757C404 62.2061 404.062 62.0205 404.085 61.8295C404.108 61.6385 404.092 61.4459 404.037 61.2628C403.79 60.426 403.383 59.9878 402.387 59.9878C389.085 60.0143 372.794 59.9692 353.515 59.8523C353.259 59.8524 353.007 59.9182 352.782 60.0435C352.203 60.3729 351.82 60.8165 351.634 61.3743C351.548 61.6358 351.523 61.9134 351.56 62.1878C351.598 62.4622 351.698 62.7267 351.853 62.9628C352.007 63.1988 352.214 63.4008 352.457 63.5545C352.7 63.7082 352.974 63.81 353.26 63.8526C357.571 64.4901 360.52 67.9246 362.735 71.662C364.716 74.9982 366.204 77.697 367.197 79.7582C369.381 84.2845 382.869 111.702 407.663 162.012C407.738 162.165 407.782 162.333 407.792 162.504C407.802 162.675 407.777 162.847 407.718 163.008C405.033 170.419 398.945 176.897 392.45 181.615C385.369 186.763 377.262 189.097 368.13 188.619C367.221 188.572 363.981 187.976 358.408 186.834C356.177 186.377 354.567 186.205 353.579 186.316C348.893 186.826 346.582 190.094 346.662 194.899C346.773 201.561 351.889 206.278 357.93 207.944C369.381 211.099 381.382 207.553 390.243 200.182C400.435 191.695 408.236 180.643 414.691 168.634C421.863 155.302 430.931 135.476 439.625 118.008C446.2 104.796 452.184 92.0779 460.727 75.2081C463.797 69.1359 467.925 65.4225 473.11 64.0678C473.345 64.0051 473.562 63.8846 473.74 63.7171C474.977 62.5696 475.017 61.4195 473.859 60.2667C473.68 60.0881 473.439 59.9878 473.19 59.9878L442.908 59.9399C442.407 59.9406 441.923 60.1255 441.549 60.4592C441.176 60.7929 440.939 61.2521 440.884 61.7489L440.876 61.7967C440.854 62.0476 440.881 62.3005 440.958 62.5405C441.035 62.7804 441.159 63.0025 441.323 63.1935C441.488 63.3845 441.689 63.5406 441.914 63.6525C442.14 63.7643 442.386 63.8297 442.638 63.8446C454.599 64.514 450.072 76.4831 447.275 82.874C440.364 98.6734 433.386 113.734 426.341 128.057C426.297 128.148 426.229 128.225 426.143 128.279C426.058 128.333 425.959 128.362 425.858 128.363C425.757 128.364 425.657 128.337 425.571 128.284C425.485 128.231 425.415 128.155 425.369 128.065Z" stroke="#858689" stroke-width="2"/>
<path d="M181.752 113.488C181.754 112.541 181.569 111.603 181.208 110.727C180.847 109.852 180.318 109.056 179.649 108.385C178.981 107.714 178.186 107.181 177.312 106.817C176.438 106.453 175.5 106.265 174.553 106.264L127.474 106.181C126.527 106.18 125.589 106.365 124.713 106.726C123.838 107.086 123.042 107.616 122.371 108.285C121.7 108.953 121.167 109.747 120.803 110.622C120.44 111.496 120.251 112.433 120.25 113.381L120.162 163.584C120.16 164.531 120.345 165.469 120.706 166.344C121.067 167.22 121.597 168.016 122.265 168.687C122.934 169.358 123.728 169.89 124.602 170.254C125.477 170.618 126.414 170.806 127.361 170.808L174.441 170.89C175.388 170.892 176.326 170.707 177.201 170.346C178.077 169.985 178.873 169.455 179.544 168.787C180.215 168.118 180.747 167.324 181.111 166.45C181.475 165.575 181.663 164.638 181.665 163.691L181.752 113.488Z" stroke="#858689" stroke-width="2"/>
<path d="M752.192 103.322C751.177 103.694 746.284 105.569 737.513 108.948C726.779 113.092 716.619 122.248 716.492 134.376C716.428 140.937 718.97 145.572 724.118 148.282C734.509 153.74 746.183 146.242 752.263 138.034C752.413 137.838 752.495 137.597 752.494 137.349V103.537C752.494 103.5 752.484 103.464 752.467 103.431C752.45 103.398 752.426 103.37 752.396 103.349C752.366 103.328 752.332 103.314 752.297 103.31C752.261 103.305 752.225 103.309 752.192 103.322Z" stroke="#858689" stroke-width="2"/>
<path d="M181.007 8.42209C179.828 10.1593 177.788 12.449 174.887 15.2912C149.334 40.3343 122.331 67.1252 93.877 95.664C93.7081 95.8306 93.574 96.0291 93.4823 96.2479C93.3907 96.4668 93.3434 96.7017 93.3432 96.939C93.2316 132.14 93.2263 152.773 93.3272 158.84C93.3963 163.032 93.0164 165.808 92.1877 167.168C90.6842 169.638 88.2883 170.873 84.9999 170.873C61.1521 170.889 36.2125 170.852 10.1813 170.761C8.60346 170.756 6.76534 170.151 4.66691 168.945C2.23378 167.542 1.01457 165.255 1.00925 162.083C0.977379 124.423 1.02785 99.396 1.16066 87.0019C1.20847 82.1809 3.33612 80.109 6.27659 77.1765C24.525 58.9705 42.7735 40.8284 61.0219 22.7499C68.4753 15.3655 73.315 10.5763 75.541 8.38226C78.2025 5.7632 80.3939 4.00476 82.1152 3.10695C84.7289 1.73632 87.4436 1.051 90.2593 1.051C146.365 1.0085 175.095 0.992563 176.449 1.00319C176.502 1.00322 176.556 1.01128 176.609 1.02709C180.205 2.00459 181.783 4.17476 181.342 7.53757C181.3 7.85725 181.186 8.16022 181.007 8.42209Z" fill="#1B1B1B"/>
<path d="M628.883 164.227C628.384 164.225 627.903 164.041 627.531 163.709C627.158 163.377 626.919 162.921 626.859 162.426V162.394C626.819 161.875 626.983 161.36 627.316 160.96C627.649 160.559 628.126 160.305 628.644 160.251C635.609 159.533 636.605 152.577 636.597 146.767C636.581 121.48 636.602 87.6791 636.66 45.3651C636.666 42.4538 636.413 39.4602 635.903 36.3843C635.213 32.1927 632.753 29.9083 628.524 29.5311C626.285 29.3319 626.126 26.503 627.775 25.1882C627.969 25.0369 628.197 24.9405 628.437 24.9093C633.446 24.2027 637.181 23.5838 639.641 23.0526C648.768 21.071 657.475 17.8304 665.762 13.3307C665.97 13.2164 666.209 13.1692 666.448 13.1952C667.85 13.344 668.551 14.1089 668.551 15.4902C668.52 62.0968 668.49 106.246 668.464 147.939C668.458 151.089 668.907 153.865 669.81 156.266C670.639 158.487 672.613 159.77 675.731 160.115C676.262 160.173 676.755 160.416 677.122 160.803C677.49 161.19 677.709 161.694 677.739 162.227L677.747 162.362C677.766 162.608 677.734 162.855 677.652 163.087C677.571 163.319 677.443 163.533 677.275 163.713C677.107 163.893 676.904 164.037 676.678 164.135C676.452 164.233 676.209 164.283 675.962 164.283L628.883 164.227Z" fill="#1B1B1B"/>
<path d="M567.962 29.5393C567.117 27.9933 567.874 26.1127 569.627 25.8975C582.335 24.3516 594.028 20.4974 604.706 14.3349C605.965 13.6071 606.847 13.3441 607.351 13.546C608.642 14.04 609.144 15.2752 609.105 16.6379C608.826 24.9572 609.081 34.4799 609.081 41.5243C609.07 73.6755 609.051 108.621 609.025 146.361C609.025 152.091 609.065 159.31 616.332 160.259C616.845 160.325 617.315 160.578 617.653 160.969C617.991 161.36 618.173 161.862 618.165 162.378L618.173 162.546C618.182 162.769 618.145 162.992 618.065 163.202C617.986 163.411 617.865 163.601 617.71 163.762C617.555 163.923 617.37 164.051 617.164 164.137C616.959 164.224 616.738 164.268 616.515 164.267L569.54 164.171C569.038 164.171 568.557 163.973 568.201 163.619C567.846 163.265 567.645 162.784 567.643 162.283V162.235C567.648 161.718 567.836 161.219 568.173 160.828C568.51 160.437 568.975 160.179 569.484 160.099C576.887 158.952 577.445 151.955 577.437 145.987C577.389 116.295 577.405 83.2832 577.485 46.951C577.495 43.3172 577.014 39.5613 576.042 35.6832C575.357 32.926 573.038 31.2605 570.305 30.7585C569.062 30.5247 568.281 30.1183 567.962 29.5393Z" fill="#1B1B1B"/>
<path d="M250.75 115.49C250.734 114.255 252.87 112.908 254.129 113.131C256.121 113.477 257.165 114.792 257.26 117.076C257.271 117.408 257.338 117.737 257.46 118.048C263.157 133.213 269.803 144.743 282.585 153.214C287.414 156.412 292.952 158.463 299.2 159.366C308.236 160.665 320.174 158.338 325.959 150.76C330.15 145.267 330.852 139.261 328.063 132.743C325.027 125.642 316.492 120.471 309.527 117.068C305.038 114.874 298.185 111.678 288.968 107.482C268.313 98.0864 246.622 82.7705 252.631 56.1469C256.934 37.0936 274.943 26.4713 293.16 24.5747C297.064 24.1657 300.528 23.908 303.551 23.8018C305.708 23.7274 310.085 24.0993 316.683 24.9174C325.401 25.9958 333.856 28.4794 342.048 32.3682C343.445 33.0269 344.574 34.0921 345.435 35.5636C345.549 35.7619 345.61 35.9873 345.61 36.2171V64.3547C345.61 64.7213 345.533 65.0837 345.385 65.4186C345.237 65.7534 345.02 66.0534 344.749 66.2991C343.246 67.6697 341.74 67.7016 340.231 66.3947C340.039 66.2287 339.903 66.0061 339.841 65.7572C339.384 63.9457 338.592 61.5843 337.466 58.673C334.613 51.2727 330.336 44.9615 324.636 39.7393C315.86 31.7015 305.787 29.0293 294.419 31.7227C285.023 33.946 277.875 43.8193 280.41 53.4694C283.143 63.8846 296.985 70.2516 305.83 74.1005C310.675 76.2122 314.58 78.5312 319.648 80.7305C330.103 85.2568 340.956 91.815 348.343 100.756C355.18 109.028 356.655 119.427 355.125 130.511C353.037 145.644 340.868 157.509 326.859 162.482C316.628 166.116 306.467 166.761 295.104 166.179C281.801 165.505 268.85 162.166 256.248 156.163C252.577 154.415 250.755 151.716 250.782 148.066C250.888 134.684 250.877 123.826 250.75 115.49Z" fill="#1B1B1B"/>
<path d="M559.69 136.472C561.164 136.456 563.101 138.074 562.264 139.763C561.494 141.309 560.851 142.441 560.336 143.158C551.833 154.959 540.74 162.538 526.413 165.175C519.347 166.477 512.268 166.711 505.176 165.877C499.592 165.223 493.868 163.369 488.003 160.314C474.464 153.254 465.476 140.177 462.75 125.252C458.097 99.728 469.683 75.1922 493.111 63.7491C506.69 57.1191 522.612 56.3541 537.848 59.6532C543.49 60.8697 548.552 63.1222 553.036 66.4107C559.722 71.3274 563.81 79.5591 560.383 87.6155C558.503 92.0302 554.742 94.4208 549.881 94.7077C543.585 95.0796 539.102 92.4127 536.429 86.7071C535.33 84.3483 535.051 80.8979 534.557 78.5471C532.445 68.5622 524.548 62.1155 514.42 64.283C504.483 66.4027 498.124 73.4869 494.912 83.1291C491.278 94.025 491.079 105.58 494.315 117.793C498.291 132.806 510.156 144.457 525.353 146.576C532.405 147.556 539.665 146.449 546.223 144.178C550.598 142.664 554.542 139.444 558.606 136.799C558.929 136.586 559.306 136.472 559.69 136.472Z" fill="#1B1B1B"/>
<path d="M752.534 147.078C752.53 147.024 752.511 146.971 752.477 146.928C752.444 146.884 752.398 146.851 752.346 146.833C752.295 146.815 752.239 146.813 752.185 146.827C752.132 146.841 752.085 146.87 752.048 146.911C746.932 152.787 740.886 157.56 733.911 161.231C720.388 168.355 701.12 169.534 690.577 156.601C684.409 149.031 683.923 137.516 688.274 128.814C694.306 116.749 708.268 110.852 720.516 107.338C731.773 104.103 740.576 101.34 746.924 99.0507C748.895 98.3389 750.643 97.4623 752.167 96.421C752.271 96.3521 752.355 96.2596 752.415 96.1514C752.475 96.0432 752.507 95.9225 752.51 95.7995C752.574 93.1645 752.576 88.7737 752.518 82.6271C752.462 76.8657 751.307 70.937 746.637 67.2873C742.35 63.9298 737.415 63.1808 731.831 65.0401C724.707 67.4148 720.611 72.2518 719.543 79.5512C718.911 83.865 718.531 86.3486 718.404 87.002C717.315 92.5695 714.103 96.2298 708.77 97.9829C706.706 98.6603 701.662 98.9153 699.255 98.0387C688.983 94.2695 692.003 82.0693 697.366 75.5111C702.583 69.1361 709.389 64.5487 717.782 61.749C730.086 57.6372 742.509 56.6597 755.052 58.8165C764.917 60.5219 774.99 65.2393 780.098 74.244C783.58 80.372 784.313 86.6593 784.266 94.6759C784.101 120.723 784.119 137.683 784.321 145.556C784.374 147.825 785.028 150.34 786.282 153.103C787.387 155.531 789.31 156.774 792.051 156.832C793.461 156.864 794.593 156.394 796.091 155.98C796.229 155.942 796.373 155.935 796.515 155.958C796.656 155.981 796.792 156.035 796.912 156.115C797.65 156.609 798.017 157.265 798.012 158.083C798.012 158.366 797.91 158.64 797.725 158.856C797.119 159.573 796.174 160.277 794.888 160.968C785.525 165.988 771.627 168.873 762.328 163.956C756.213 160.721 752.948 155.095 752.534 147.078ZM752.191 103.322C751.177 103.694 746.284 105.569 737.513 108.948C726.779 113.092 716.619 122.248 716.491 134.376C716.428 140.937 718.97 145.572 724.117 148.282C734.509 153.74 746.183 146.242 752.263 138.034C752.413 137.838 752.494 137.597 752.494 137.349V103.537C752.493 103.5 752.484 103.464 752.467 103.431C752.45 103.398 752.426 103.37 752.396 103.349C752.366 103.328 752.332 103.314 752.296 103.31C752.261 103.305 752.225 103.309 752.191 103.322Z" fill="#1B1B1B"/>
<path d="M425.369 128.065C425.414 128.155 425.484 128.231 425.571 128.284C425.657 128.337 425.756 128.364 425.858 128.363C425.959 128.362 426.058 128.333 426.143 128.279C426.229 128.225 426.297 128.148 426.341 128.057C433.386 113.734 440.364 98.6734 447.275 82.874C450.072 76.4831 454.598 64.514 442.637 63.8446C442.386 63.8297 442.14 63.7643 441.914 63.6525C441.688 63.5406 441.487 63.3845 441.323 63.1935C441.159 63.0025 441.035 62.7804 440.958 62.5405C440.881 62.3005 440.853 62.0476 440.876 61.7967L440.884 61.7489C440.939 61.2521 441.176 60.7929 441.549 60.4592C441.923 60.1255 442.406 59.9406 442.908 59.9399L473.189 59.9878C473.439 59.9878 473.68 60.0881 473.859 60.2667C475.017 61.4195 474.977 62.5696 473.739 63.7171C473.562 63.8846 473.345 64.0051 473.11 64.0678C467.925 65.4225 463.797 69.1359 460.726 75.2081C452.184 92.0779 446.199 104.796 439.625 118.008C430.931 135.476 421.863 155.302 414.691 168.634C408.236 180.643 400.435 191.695 390.243 200.182C381.382 207.553 369.381 211.099 357.929 207.944C351.889 206.278 346.773 201.561 346.662 194.899C346.582 190.094 348.893 186.826 353.579 186.316C354.567 186.205 356.176 186.377 358.408 186.834C363.98 187.976 367.221 188.572 368.129 188.619C377.262 189.097 385.369 186.763 392.45 181.615C398.945 176.897 405.033 170.419 407.718 163.008C407.776 162.847 407.801 162.675 407.792 162.504C407.782 162.333 407.738 162.165 407.662 162.012C382.869 111.702 369.381 84.2845 367.197 79.7582C366.204 77.697 364.716 74.9982 362.735 71.662C360.519 67.9246 357.571 64.4901 353.26 63.8526C352.974 63.81 352.7 63.7082 352.457 63.5545C352.213 63.4008 352.007 63.1988 351.852 62.9628C351.698 62.7267 351.598 62.4622 351.56 62.1878C351.522 61.9134 351.548 61.6358 351.634 61.3743C351.82 60.8165 352.203 60.3729 352.782 60.0435C353.006 59.9182 353.259 59.8524 353.515 59.8523C372.794 59.9692 389.085 60.0143 402.387 59.9878C403.383 59.9878 403.79 60.426 404.037 61.2628C404.091 61.4459 404.108 61.6385 404.085 61.8295C404.062 62.0205 404 62.2061 403.903 62.3757C403.806 62.5453 403.676 62.6955 403.519 62.8176C403.363 62.9398 403.184 63.0316 402.993 63.0876C399.885 64.004 396.897 65.3029 397.622 69.2554C397.994 71.2901 398.945 73.8959 400.475 77.0728C406.547 89.7006 412.691 102.347 418.906 115.012C420.213 117.679 422.367 122.03 425.369 128.065Z" fill="#1B1B1B"/>
<path d="M752.191 103.322C752.225 103.309 752.261 103.305 752.297 103.31C752.332 103.314 752.366 103.328 752.396 103.349C752.426 103.37 752.45 103.398 752.467 103.431C752.484 103.464 752.493 103.5 752.494 103.537V137.349C752.494 137.597 752.413 137.838 752.263 138.034C746.183 146.242 734.509 153.74 724.117 148.282C718.97 145.572 716.428 140.937 716.491 134.376C716.619 122.248 726.779 113.092 737.513 108.948C746.284 105.569 751.177 103.694 752.191 103.322Z" fill="#EFF0F7"/>
<path d="M174.553 106.264L127.474 106.182C123.491 106.175 120.257 109.398 120.25 113.381L120.162 163.584C120.155 167.567 123.378 170.801 127.361 170.808L174.44 170.89C178.423 170.897 181.658 167.674 181.665 163.691L181.752 113.488C181.759 109.505 178.536 106.271 174.553 106.264Z" fill="#1B1B1B"/>
</svg>
